<svg xmlns="http://www.w3.org/2000/svg" viewBox="0 0 256 256"><defs><filter id="hdr" x="-30%" y="-30%" width="160%" height="160%"><feDropShadow dx="-8" dy="-8" stdDeviation="8" flood-color="#2c2c33" flood-opacity="0.55"/><feDropShadow dx="8" dy="8" stdDeviation="9" flood-color="#000000" flood-opacity="0.85"/></filter><filter id="hdi" x="-10%" y="-10%" width="120%" height="120%"><feOffset dx="6" dy="6"/><feGaussianBlur stdDeviation="6" result="o"/><feComposite in="SourceGraphic" in2="o" operator="arithmetic" k2="-1" k3="1"/></filter><linearGradient id="hdf" x1="0" y1="0" x2="0" y2="1"><stop offset="0" stop-color="#68a5c7"/><stop offset="1" stop-color="#2f779e"/></linearGradient><linearGradient id="hdm" x1="0" y1="0" x2="0" y2="1"><stop offset="0" stop-color="#a4c9dd"/><stop offset="1" stop-color="#72abca"/></linearGradient><linearGradient id="hdb" x1="0" y1="0" x2="0" y2="1"><stop offset="0" stop-color="#cce1ec"/><stop offset="1" stop-color="#9ac3da"/></linearGradient><filter id="hdd" x="-25%" y="-25%" width="150%" height="160%"><feDropShadow dx="0" dy="9" stdDeviation="7" flood-color="#000" flood-opacity="0.7"/><feDropShadow dx="-1.5" dy="-1.5" stdDeviation="1" flood-color="#fff" flood-opacity="0.12"/></filter></defs><rect x="14" y="14" width="228" height="228" rx="50" fill="#18181b" filter="url(#hdr)"/><g transform="translate(128 124) scale(0.8) translate(-128 -128)" filter="url(#hdd)"><g transform="translate(0 8)"><rect x="56" y="74" width="144" height="128" rx="20" fill="#225875"/><rect x="56" y="74" width="144" height="44" rx="20" fill="#225875"/><rect x="56" y="100" width="144" height="18" rx="0" fill="#225875"/><rect x="86" y="52" width="20" height="44" rx="10" fill="#225875"/><rect x="150" y="52" width="20" height="44" rx="10" fill="#225875"/><rect x="126" y="142" width="48" height="42" rx="11" fill="#225875"/></g><rect x="56" y="74" width="144" height="128" rx="20" fill="url(#hdb)"/><rect x="56" y="74" width="144" height="44" rx="20" fill="url(#hdm)"/><rect x="56" y="100" width="144" height="18" rx="0" fill="url(#hdm)"/><rect x="86" y="52" width="20" height="44" rx="10" fill="url(#hdf)"/><rect x="150" y="52" width="20" height="44" rx="10" fill="url(#hdf)"/><rect x="126" y="142" width="48" height="42" rx="11" fill="url(#hdf)"/></g></svg>