<svg xmlns="http://www.w3.org/2000/svg" viewBox="0 0 256 256"><defs><filter id="hlr" x="-30%" y="-30%" width="160%" height="160%"><feDropShadow dx="-8" dy="-8" stdDeviation="8" flood-color="#ffffff" flood-opacity="0.95"/><feDropShadow dx="8" dy="8" stdDeviation="9" flood-color="#a1a1aa" flood-opacity="0.45"/></filter><filter id="hli" x="-10%" y="-10%" width="120%" height="120%"><feOffset dx="6" dy="6"/><feGaussianBlur stdDeviation="6" result="o"/><feComposite in="SourceGraphic" in2="o" operator="arithmetic" k2="-1" k3="1"/></filter><linearGradient id="hlf" x1="0" y1="0" x2="0" y2="1"><stop offset="0" stop-color="#69757b"/><stop offset="1" stop-color="#303e46"/></linearGradient><linearGradient id="hlm" x1="0" y1="0" x2="0" y2="1"><stop offset="0" stop-color="#a5acb0"/><stop offset="1" stop-color="#737e84"/></linearGradient><linearGradient id="hlb" x1="0" y1="0" x2="0" y2="1"><stop offset="0" stop-color="#cdd1d3"/><stop offset="1" stop-color="#9ba3a7"/></linearGradient><filter id="hld" x="-25%" y="-25%" width="150%" height="160%"><feDropShadow dx="0" dy="9" stdDeviation="7" flood-color="#161c20" flood-opacity="0.35"/><feDropShadow dx="-1.5" dy="-1.5" stdDeviation="1" flood-color="#fff" flood-opacity="0.7"/></filter></defs><rect x="14" y="14" width="228" height="228" rx="50" fill="#f4f4f5" filter="url(#hlr)"/><g transform="translate(128 124) scale(0.8) translate(-128 -128)" filter="url(#hld)"><g transform="translate(0 8)"><rect x="56" y="52" width="148" height="152" rx="30" fill="#242e33"/><rect x="44" y="82" width="20" height="30" rx="7" fill="#242e33"/><rect x="44" y="146" width="20" height="30" rx="7" fill="#242e33"/><circle cx="132" cy="128" r="46" fill="none" stroke="#242e33" stroke-width="16"/><circle cx="132" cy="120" r="12" fill="#242e33"/><polygon points="126,124 138,124 142,150 122,150" fill="#242e33" stroke="#242e33" stroke-width="6" stroke-linejoin="round"/></g><rect x="56" y="52" width="148" height="152" rx="30" fill="url(#hlb)"/><rect x="44" y="82" width="20" height="30" rx="7" fill="url(#hlm)"/><rect x="44" y="146" width="20" height="30" rx="7" fill="url(#hlm)"/><circle cx="132" cy="128" r="46" fill="none" stroke="url(#hlf)" stroke-width="16"/><circle cx="132" cy="120" r="12" fill="url(#hlm)"/><polygon points="126,124 138,124 142,150 122,150" fill="url(#hlm)" stroke="url(#hlm)" stroke-width="6" stroke-linejoin="round"/></g></svg>