<svg xmlns="http://www.w3.org/2000/svg" viewBox="0 0 256 256"><defs><filter id="hlr" x="-30%" y="-30%" width="160%" height="160%"><feDropShadow dx="-8" dy="-8" stdDeviation="8" flood-color="#ffffff" flood-opacity="0.95"/><feDropShadow dx="8" dy="8" stdDeviation="9" flood-color="#a1a1aa" flood-opacity="0.45"/></filter><filter id="hli" x="-10%" y="-10%" width="120%" height="120%"><feOffset dx="6" dy="6"/><feGaussianBlur stdDeviation="6" result="o"/><feComposite in="SourceGraphic" in2="o" operator="arithmetic" k2="-1" k3="1"/></filter><linearGradient id="hlf" x1="0" y1="0" x2="0" y2="1"><stop offset="0" stop-color="#8f54b3"/><stop offset="1" stop-color="#5d1888"/></linearGradient><linearGradient id="hlm" x1="0" y1="0" x2="0" y2="1"><stop offset="0" stop-color="#bc98d2"/><stop offset="1" stop-color="#975fb8"/></linearGradient><linearGradient id="hlb" x1="0" y1="0" x2="0" y2="1"><stop offset="0" stop-color="#dac6e6"/><stop offset="1" stop-color="#b48dcc"/></linearGradient><filter id="hld" x="-25%" y="-25%" width="150%" height="160%"><feDropShadow dx="0" dy="9" stdDeviation="7" flood-color="#2a0b3e" flood-opacity="0.35"/><feDropShadow dx="-1.5" dy="-1.5" stdDeviation="1" flood-color="#fff" flood-opacity="0.7"/></filter></defs><rect x="14" y="14" width="228" height="228" rx="50" fill="#f4f4f5" filter="url(#hlr)"/><g transform="translate(128 124) scale(0.8) translate(-128 -128)" filter="url(#hld)"><g transform="translate(0 8)"><polygon points="58,200 100,200 146,62 110,62" fill="#451264" stroke="#451264" stroke-width="10" stroke-linejoin="round"/><polygon points="198,200 156,200 110,62 146,62" fill="#451264" stroke="#451264" stroke-width="10" stroke-linejoin="round"/><clipPath id="hlxc"><polygon points="58,200 100,200 146,62 110,62"/></clipPath><g clip-path="url(#hlxc)"><polygon points="198,200 156,200 110,62 146,62" fill="#451264" stroke="#451264" stroke-width="10" stroke-linejoin="round"/></g><circle cx="124" cy="156" r="31" fill="#451264"/><circle cx="124" cy="156" r="21" fill="none" stroke="#451264" stroke-width="12"/><path d="M140 172 L160 192" stroke="#451264" stroke-width="13" stroke-linecap="round"/></g><polygon points="58,200 100,200 146,62 110,62" fill="url(#hlb)" stroke="url(#hlb)" stroke-width="10" stroke-linejoin="round"/><polygon points="198,200 156,200 110,62 146,62" fill="url(#hlf)" stroke="url(#hlf)" stroke-width="10" stroke-linejoin="round"/><clipPath id="hlc"><polygon points="58,200 100,200 146,62 110,62"/></clipPath><g clip-path="url(#hlc)"><polygon points="198,200 156,200 110,62 146,62" fill="url(#hlm)" stroke="url(#hlm)" stroke-width="10" stroke-linejoin="round"/></g><circle cx="124" cy="156" r="31" fill="#f4f4f5"/><circle cx="124" cy="156" r="21" fill="none" stroke="url(#hlf)" stroke-width="12"/><path d="M140 172 L160 192" stroke="url(#hlf)" stroke-width="13" stroke-linecap="round"/></g></svg>