<svg xmlns="http://www.w3.org/2000/svg" viewBox="0 0 256 256"><defs><filter id="hdr" x="-30%" y="-30%" width="160%" height="160%"><feDropShadow dx="-8" dy="-8" stdDeviation="8" flood-color="#2c2c33" flood-opacity="0.55"/><feDropShadow dx="8" dy="8" stdDeviation="9" flood-color="#000000" flood-opacity="0.85"/></filter><filter id="hdi" x="-10%" y="-10%" width="120%" height="120%"><feOffset dx="6" dy="6"/><feGaussianBlur stdDeviation="6" result="o"/><feComposite in="SourceGraphic" in2="o" operator="arithmetic" k2="-1" k3="1"/></filter><linearGradient id="hdf" x1="0" y1="0" x2="0" y2="1"><stop offset="0" stop-color="#ce729a"/><stop offset="1" stop-color="#a63b6a"/></linearGradient><linearGradient id="hdm" x1="0" y1="0" x2="0" y2="1"><stop offset="0" stop-color="#e1aac3"/><stop offset="1" stop-color="#d17ba1"/></linearGradient><linearGradient id="hdb" x1="0" y1="0" x2="0" y2="1"><stop offset="0" stop-color="#eed0de"/><stop offset="1" stop-color="#dea1bc"/></linearGradient><filter id="hdd" x="-25%" y="-25%" width="150%" height="160%"><feDropShadow dx="0" dy="9" stdDeviation="7" flood-color="#000" flood-opacity="0.7"/><feDropShadow dx="-1.5" dy="-1.5" stdDeviation="1" flood-color="#fff" flood-opacity="0.12"/></filter></defs><rect x="14" y="14" width="228" height="228" rx="50" fill="#18181b" filter="url(#hdr)"/><g transform="translate(128 124) scale(0.8) translate(-128 -128)" filter="url(#hdd)"><g transform="translate(0 8)"><rect x="50" y="70" width="156" height="118" rx="22" fill="#7b2c4f"/><rect x="108" y="56" width="40" height="16" rx="8" fill="#7b2c4f"/><circle cx="128" cy="116" r="27" fill="#7b2c4f"/><path d="M80 200 A48 44 0 0 1 176 200 Z" fill="#7b2c4f"/></g><rect x="50" y="70" width="156" height="118" rx="22" fill="url(#hdb)"/><rect x="108" y="56" width="40" height="16" rx="8" fill="url(#hdm)"/><circle cx="128" cy="116" r="27" fill="url(#hdf)"/><path d="M80 200 A48 44 0 0 1 176 200 Z" fill="url(#hdf)"/></g></svg>