<svg xmlns="http://www.w3.org/2000/svg" viewBox="0 0 256 256"><defs><filter id="hdr" x="-30%" y="-30%" width="160%" height="160%"><feDropShadow dx="-8" dy="-8" stdDeviation="8" flood-color="#2c2c33" flood-opacity="0.55"/><feDropShadow dx="8" dy="8" stdDeviation="9" flood-color="#000000" flood-opacity="0.85"/></filter><filter id="hdi" x="-10%" y="-10%" width="120%" height="120%"><feOffset dx="6" dy="6"/><feGaussianBlur stdDeviation="6" result="o"/><feComposite in="SourceGraphic" in2="o" operator="arithmetic" k2="-1" k3="1"/></filter><linearGradient id="hdf" x1="0" y1="0" x2="0" y2="1"><stop offset="0" stop-color="#8e88e0"/><stop offset="1" stop-color="#5c54bb"/></linearGradient><linearGradient id="hdm" x1="0" y1="0" x2="0" y2="1"><stop offset="0" stop-color="#bcb7ec"/><stop offset="1" stop-color="#9690e2"/></linearGradient><linearGradient id="hdb" x1="0" y1="0" x2="0" y2="1"><stop offset="0" stop-color="#dad7f4"/><stop offset="1" stop-color="#b4b0ea"/></linearGradient><filter id="hdd" x="-25%" y="-25%" width="150%" height="160%"><feDropShadow dx="0" dy="9" stdDeviation="7" flood-color="#000" flood-opacity="0.7"/><feDropShadow dx="-1.5" dy="-1.5" stdDeviation="1" flood-color="#fff" flood-opacity="0.12"/></filter></defs><rect x="14" y="14" width="228" height="228" rx="50" fill="#18181b" filter="url(#hdr)"/><g transform="translate(128 124) scale(0.8) translate(-128 -128)" filter="url(#hdd)"><g transform="translate(0 8)"><rect x="112" y="98" width="32" height="106" rx="10" fill="#443e8a"/><polygon points="128,54 208,86 128,118 48,86" fill="#443e8a" stroke="#443e8a" stroke-width="12" stroke-linejoin="round"/><path d="M188 94 V140" stroke="#443e8a" stroke-width="9" stroke-linecap="round"/><circle cx="188" cy="148" r="11" fill="#443e8a"/></g><rect x="112" y="98" width="32" height="106" rx="10" fill="url(#hdm)"/><polygon points="128,54 208,86 128,118 48,86" fill="url(#hdf)" stroke="url(#hdf)" stroke-width="12" stroke-linejoin="round"/><path d="M188 94 V140" stroke="url(#hdb)" stroke-width="9" stroke-linecap="round"/><circle cx="188" cy="148" r="11" fill="url(#hdb)"/></g></svg>